# xmcd
#
# Track frame offsets:
#	150
#	14035
#	28925
#	41058
#	52320
#	64657
#	75929
#	87485
#	99992
#	112966
#	126391
#	139181
#	153137
#	167848
#	178902
#	189374
#	199824
#	212599
#	226612
#	241887
#	253762
#	266834
#	276767
#	289985
#	302502
#	314658
#
# Disc length: 4360 seconds
#
# Revision: 0
# Processed by: cddbd v1.5.2PL0 Copyright (c) Steve Scherf et al.
# Submitted via: dBpowerAMP V4.0
#
DISCID=7c11061a
DTITLE=Various Artist - Rumba Blues
DYEAR=1900
DGENRE=Blues
TTITLE0=Joe Swift with Johnny Otis Orchestra - That's your last boogie
TTITLE1=T-Bone Walker  - T-Bone Blues
TTITLE2=Pee Wee Crayton - Daybreak Blues
TTITLE3=Edgar Hayes - Fat Meat 'n' Greens
TTITLE4=Johnny Otis Orchestra - Mambo Boogie
TTITLE5=Lowell Fulson - Back Home Blues
TTITLE6=Lloyd Glenn - Cuba Doll
TTITLE7=Ray Charles - Heartbreaker
TTITLE8=Big Mama Thornton - Hound Dog
TTITLE9=B.B. King - Woke up this morning
TTITLE10=Professor Longhair - Hey Now Baby
TTITLE11=Dave Batholomew - Country Boy
TTITLE12=Clarence Garlow - Bon Ton Roula
TTITLE13=Sugar Boy Crawford - Jock-O-Mo
TTITLE14=Fats Domino - Mardi Gras in New Orleans
TTITLE15=Lloyd Price - Tell  Me Pretty Babe
TTITLE16=Billy Wrigth - Hey Little Girl
TTITLE17=Kid King's Combo - Banana Split
TTITLE18=Louis Jordan and his Timpani Five - Early in the morning
TTITLE19=Chris Powell's Five Blue  Flames - I Come from Jamaica
TTITLE20=Sonny Thompson - Jumping with the Rhumba
TTITLE21=The Ray-O-Vacs - My Baby's Gone
TTITLE22=Skeets Tolbert - Rhumba Blues
TTITLE23=Jimmy Reed - Roll and Rumba
TTITLE24=Muddy Waters - I Can't Be Satisfied
TTITLE25=Champion Jack Dupree - Mexican Reminiscence
EXTD=
EXTT0=
EXTT1=
EXTT2=
EXTT3=
EXTT4=
EXTT5=
EXTT6=
EXTT7=
EXTT8=
EXTT9=
EXTT10=
EXTT11=
EXTT12=
EXTT13=
EXTT14=
EXTT15=
EXTT16=
EXTT17=
EXTT18=
EXTT19=
EXTT20=
EXTT21=
EXTT22=
EXTT23=
EXTT24=
EXTT25=
PLAYORDER=
